<?xml version="1.0" standalone="no"?>
<!DOCTYPE svg PUBLIC "-//W3C//DTD SVG 20010904//EN"
 "http://www.w3.org/TR/2001/REC-SVG-20010904/DTD/svg10.dtd">
<svg version="1.0" xmlns="http://www.w3.org/2000/svg"
 width="431.000000pt" height="431.000000pt" viewBox="0 0 431.000000 431.000000"
 preserveAspectRatio="xMidYMid meet">
<metadata>
Created by potrace 1.11, written by Peter Selinger 2001-2013
</metadata>
<g transform="translate(0.000000,431.000000) scale(0.100000,-0.100000)"
fill="#000000" stroke="none">
<path d="M2152 3845 c-75 -21 -109 -41 -161 -94 -91 -90 -115 -179 -110 -404
2 -86 2 -157 -1 -157 -3 0 -20 27 -38 60 -19 33 -35 60 -38 60 -5 0 60 -125
74 -144 5 -6 27 -45 48 -86 21 -41 42 -77 45 -80 3 -3 23 -35 43 -72 21 -38
40 -68 43 -68 2 0 -12 30 -32 66 l-37 66 33 -5 c32 -5 32 -5 -4 6 -34 9 -43
20 -84 94 -25 46 -44 86 -41 88 2 2 50 -5 107 -16 57 -11 106 -18 109 -15 3 3
0 6 -6 6 -39 0 -69 181 -53 323 15 134 57 197 148 223 58 17 96 13 155 -17 81
-41 113 -138 105 -324 -3 -66 -11 -137 -18 -159 -18 -53 -60 -96 -96 -97 -15
-1 35 -14 112 -30 77 -16 147 -28 155 -25 8 2 3 4 -12 5 -38 1 -40 11 -13 67
31 65 45 147 45 263 0 184 -33 291 -113 372 -89 89 -242 129 -365 94z"/>
<path d="M770 3626 l0 -215 -22 -4 -23 -4 23 -2 c13 0 22 -7 22 -17 0 -12 -7
-14 -32 -10 l-33 5 33 -11 32 -11 0 -214 0 -215 228 4 c207 3 231 5 274 25 61
28 129 91 159 148 13 25 31 45 39 45 12 0 12 2 2 9 -10 6 -11 19 -6 47 3 21 9
43 11 47 11 19 1 256 -13 317 -26 114 -87 192 -184 239 -54 25 -61 26 -282 29
l-228 3 0 -215z m417 53 c38 -14 71 -46 96 -94 19 -34 22 -59 24 -175 2 -74 0
-150 -3 -167 -6 -29 -9 -32 -33 -28 -25 5 -25 5 -3 -5 21 -9 22 -11 8 -37 -36
-71 -92 -93 -236 -93 l-110 0 0 110 c0 107 1 110 23 111 l22 0 -22 9 c-34 14
-31 50 5 51 l27 1 -25 7 -25 7 -3 157 -3 157 115 0 c63 0 127 -5 143 -11z"/>
<path d="M998 3353 c6 -2 18 -2 25 0 6 3 1 5 -13 5 -14 0 -19 -2 -12 -5z"/>
<path d="M1065 3340 c17 -4 41 -8 55 -8 22 0 22 1 -5 8 -16 4 -41 8 -55 8 -22
0 -22 -1 5 -8z"/>
<path d="M1158 3323 c6 -2 18 -2 25 0 6 3 1 5 -13 5 -14 0 -19 -2 -12 -5z"/>
<path d="M1208 3313 c6 -2 18 -2 25 0 6 3 1 5 -13 5 -14 0 -19 -2 -12 -5z"/>
<path d="M1258 3303 c6 -2 18 -2 25 0 6 3 1 5 -13 5 -14 0 -19 -2 -12 -5z"/>
<path d="M1010 3285 c19 -7 42 -13 50 -13 8 0 -1 6 -20 13 -19 7 -42 13 -50
13 -8 0 1 -6 20 -13z"/>
<path d="M1095 3260 c11 -5 27 -9 35 -9 9 0 8 4 -5 9 -11 5 -27 9 -35 9 -9 0
-8 -4 5 -9z"/>
<path d="M1195 3230 c11 -5 27 -9 35 -9 9 0 8 4 -5 9 -11 5 -27 9 -35 9 -9 0
-8 -4 5 -9z"/>
<path d="M1536 3754 c-19 -18 -20 -28 -6 -55 6 -11 21 -19 35 -19 20 0 33 -17
80 -100 32 -55 59 -100 61 -100 6 0 -6 23 -63 122 -36 63 -42 81 -34 97 6 11
11 24 11 30 0 16 -30 41 -50 41 -10 0 -26 -7 -34 -16z"/>
<path d="M375 3504 c-20 -21 -16 -53 10 -70 17 -11 25 -11 48 1 15 8 34 12 42
9 7 -3 22 -1 32 5 16 9 15 10 -9 11 -18 0 -34 10 -48 30 -24 33 -50 38 -75 14z"/>
<path d="M1745 3405 c21 -38 42 -74 48 -80 6 -5 -7 22 -28 60 -21 39 -42 75
-48 80 -6 6 7 -21 28 -60z"/>
<path d="M520 3440 c-11 -8 -7 -9 15 -4 37 8 45 14 19 14 -10 0 -26 -5 -34
-10z"/>
<path d="M588 3433 c6 -2 18 -2 25 0 6 3 1 5 -13 5 -14 0 -19 -2 -12 -5z"/>
<path d="M555 3420 c11 -5 27 -9 35 -9 9 0 8 4 -5 9 -11 5 -27 9 -35 9 -9 0
-8 -4 5 -9z"/>
<path d="M638 3423 c6 -2 18 -2 25 0 6 3 1 5 -13 5 -14 0 -19 -2 -12 -5z"/>
<path d="M688 3413 c6 -2 18 -2 25 0 6 3 1 5 -13 5 -14 0 -19 -2 -12 -5z"/>
<path d="M655 3390 c11 -5 27 -9 35 -9 9 0 8 4 -5 9 -11 5 -27 9 -35 9 -9 0
-8 -4 5 -9z"/>
<path d="M1508 3253 c6 -2 18 -2 25 0 6 3 1 5 -13 5 -14 0 -19 -2 -12 -5z"/>
<path d="M1575 3240 c17 -4 39 -8 50 -8 16 0 15 2 -5 8 -14 4 -36 8 -50 8 -22
0 -22 -1 5 -8z"/>
<path d="M1663 3223 c9 -2 23 -2 30 0 6 3 -1 5 -18 5 -16 0 -22 -2 -12 -5z"/>
<path d="M1718 3213 c6 -2 18 -2 25 0 6 3 1 5 -13 5 -14 0 -19 -2 -12 -5z"/>
<path d="M1768 3203 c6 -2 18 -2 25 0 6 3 1 5 -13 5 -14 0 -19 -2 -12 -5z"/>
<path d="M1818 3193 c6 -2 18 -2 25 0 6 3 1 5 -13 5 -14 0 -19 -2 -12 -5z"/>
<path d="M1535 3130 c11 -5 27 -9 35 -9 9 0 8 4 -5 9 -11 5 -27 9 -35 9 -9 0
-8 -4 5 -9z"/>
<path d="M2128 3133 c6 -2 18 -2 25 0 6 3 1 5 -13 5 -14 0 -19 -2 -12 -5z"/>
<path d="M2178 3123 c6 -2 18 -2 25 0 6 3 1 5 -13 5 -14 0 -19 -2 -12 -5z"/>
<path d="M2228 3113 c6 -2 18 -2 25 0 6 3 1 5 -13 5 -14 0 -19 -2 -12 -5z"/>
<path d="M1635 3100 c11 -5 27 -9 35 -9 9 0 8 4 -5 9 -11 5 -27 9 -35 9 -9 0
-8 -4 5 -9z"/>
<path d="M2278 3103 c6 -2 18 -2 25 0 6 3 1 5 -13 5 -14 0 -19 -2 -12 -5z"/>
<path d="M1735 3070 c11 -5 27 -9 35 -9 9 0 8 4 -5 9 -11 5 -27 9 -35 9 -9 0
-8 -4 5 -9z"/>
<path d="M1820 3045 c19 -7 42 -13 50 -13 8 0 -1 6 -20 13 -19 7 -42 13 -50
13 -8 0 1 -6 20 -13z"/>
<path d="M2638 3033 c6 -2 18 -2 25 0 6 3 1 5 -13 5 -14 0 -19 -2 -12 -5z"/>
<path d="M1905 3020 c11 -5 27 -9 35 -9 9 0 8 4 -5 9 -11 5 -27 9 -35 9 -9 0
-8 -4 5 -9z"/>
<path d="M2688 3023 c6 -2 18 -2 25 0 6 3 1 5 -13 5 -14 0 -19 -2 -12 -5z"/>
<path d="M2738 3013 c6 -2 18 -2 25 0 6 3 1 5 -13 5 -14 0 -19 -2 -12 -5z"/>
<path d="M2788 3003 c6 -2 18 -2 25 0 6 3 1 5 -13 5 -14 0 -19 -2 -12 -5z"/>
<path d="M2838 2993 c6 -2 18 -2 25 0 6 3 1 5 -13 5 -14 0 -19 -2 -12 -5z"/>
<path d="M2898 2983 c6 -2 18 -2 25 0 6 3 1 5 -13 5 -14 0 -19 -2 -12 -5z"/>
<path d="M2075 2970 c11 -5 27 -9 35 -9 9 0 8 4 -5 9 -11 5 -27 9 -35 9 -9 0
-8 -4 5 -9z"/>
<path d="M2948 2973 c6 -2 18 -2 25 0 6 3 1 5 -13 5 -14 0 -19 -2 -12 -5z"/>
<path d="M3166 2958 l-25 -23 19 -40 c11 -22 19 -34 20 -27 0 6 8 12 18 12 42
0 60 70 23 90 -26 13 -26 13 -55 -12z"/>
<path d="M2998 2963 c6 -2 18 -2 25 0 6 3 1 5 -13 5 -14 0 -19 -2 -12 -5z"/>
<path d="M3048 2953 c6 -2 18 -2 25 0 6 3 1 5 -13 5 -14 0 -19 -2 -12 -5z"/>
<path d="M2175 2940 c11 -5 27 -9 35 -9 9 0 8 4 -5 9 -11 5 -27 9 -35 9 -9 0
-8 -4 5 -9z"/>
<path d="M3098 2943 c6 -2 18 -2 25 0 6 3 1 5 -13 5 -14 0 -19 -2 -12 -5z"/>
<path d="M2275 2910 c11 -5 27 -9 35 -9 9 0 8 4 -5 9 -11 5 -27 9 -35 9 -9 0
-8 -4 5 -9z"/>
<path d="M2375 2880 c11 -5 27 -9 35 -9 9 0 8 4 -5 9 -11 5 -27 9 -35 9 -9 0
-8 -4 5 -9z"/>
<path d="M2475 2850 c11 -5 27 -9 35 -9 9 0 8 4 -5 9 -11 5 -27 9 -35 9 -9 0
-8 -4 5 -9z"/>
<path d="M2095 2785 c21 -38 42 -74 48 -80 6 -5 -7 22 -28 60 -21 39 -42 75
-48 80 -6 6 7 -21 28 -60z"/>
<path d="M2545 2830 c11 -5 27 -9 35 -9 9 0 8 4 -5 9 -11 5 -27 9 -35 9 -9 0
-8 -4 5 -9z"/>
<path d="M2615 2810 c11 -5 27 -9 35 -9 9 0 8 4 -5 9 -11 5 -27 9 -35 9 -9 0
-8 -4 5 -9z"/>
<path d="M3136 2774 c-9 -26 -14 -49 -12 -51 2 -2 11 17 20 43 9 26 14 49 12
51 -2 2 -11 -17 -20 -43z"/>
<path d="M2715 2780 c11 -5 27 -9 35 -9 9 0 8 4 -5 9 -11 5 -27 9 -35 9 -9 0
-8 -4 5 -9z"/>
<path d="M1532 2769 c2 -6 8 -10 13 -10 5 0 11 4 13 10 2 6 -4 11 -13 11 -9 0
-15 -5 -13 -11z"/>
<path d="M2815 2750 c11 -5 27 -9 35 -9 9 0 8 4 -5 9 -11 5 -27 9 -35 9 -9 0
-8 -4 5 -9z"/>
<path d="M1795 2733 c-45 -7 -54 -19 -54 -76 -1 -29 -2 -61 -3 -72 -4 -27 42
-48 76 -35 54 20 40 70 -20 70 -19 0 -34 5 -34 10 0 6 11 10 24 10 29 0 56 33
49 61 -3 10 0 19 6 19 6 0 11 5 11 10 0 10 -2 10 -55 3z m15 -43 c0 -24 -26
-38 -42 -22 -16 16 -2 42 22 42 13 0 20 -7 20 -20z m15 -99 c10 -17 -33 -33
-55 -21 -27 14 -16 30 20 30 16 0 31 -4 35 -9z"/>
<path d="M1540 2666 c0 -37 4 -66 10 -66 6 0 10 26 10 59 0 33 -4 63 -10 66
-6 4 -10 -18 -10 -59z"/>
<path d="M1600 2663 c0 -35 4 -63 10 -63 6 0 10 17 10 38 0 46 20 78 44 69 12
-5 16 -19 16 -57 0 -27 5 -50 10 -50 15 0 12 106 -2 118 -7 6 -30 10 -50 9
l-38 -1 0 -63z"/>
<path d="M2418 2483 l-3 -248 -129 228 c-70 125 -130 227 -132 227 -6 0 1 -13
142 -263 l124 -217 0 -199 0 -198 -45 -13 c-25 -7 -44 -15 -41 -17 2 -3 61 14
130 36 69 23 132 41 140 41 8 0 35 -38 61 -85 43 -80 45 -86 30 -108 -14 -22
-14 -25 4 -41 11 -10 18 -23 17 -29 -2 -7 -1 -9 1 -4 3 4 12 7 22 7 9 0 22 5
27 10 7 7 28 -3 63 -30 30 -21 55 -41 58 -43 2 -2 -12 -28 -32 -56 -63 -95
-69 -179 -18 -273 46 -84 121 -120 285 -138 171 -18 218 -45 218 -126 0 -84
-63 -128 -185 -128 -100 -1 -154 25 -185 89 -11 23 -20 47 -20 53 0 8 -26 12
-86 12 l-87 0 7 -41 c16 -98 82 -180 186 -228 72 -33 237 -42 323 -17 76 22
146 72 182 130 61 100 41 253 -43 328 -57 49 -112 68 -264 88 -137 17 -144 20
-170 49 -16 18 -28 43 -28 59 0 30 34 92 51 92 6 0 30 -14 54 -31 31 -22 43
-38 43 -56 0 -28 16 -43 48 -43 30 0 47 25 41 57 -5 25 17 49 211 245 l216
218 263 0 263 0 0 75 0 75 -185 0 c-102 0 -185 3 -185 8 0 13 318 326 335 328
51 7 60 72 13 88 -21 8 -32 6 -46 -7 -16 -15 -45 -17 -215 -17 l-197 0 0 59
c0 38 4 61 13 64 9 4 9 6 0 6 -8 1 -13 16 -13 41 l0 40 240 0 240 0 0 75 0 75
-325 0 -325 0 0 -86 0 -86 -27 6 c-69 15 -74 14 -25 -2 l53 -17 -1 -195 c0
-107 -1 -270 0 -362 l0 -168 50 0 c28 0 50 -3 50 -8 0 -4 -55 -62 -122 -129
l-123 -122 -70 24 c-117 41 -254 30 -357 -28 l-38 -20 -57 45 c-32 25 -57 51
-55 58 1 7 -4 23 -13 36 -11 18 -12 29 -5 50 6 15 9 29 6 31 -2 2 -8 -10 -14
-26 -19 -53 -42 -39 -93 54 -30 53 -43 86 -35 89 6 2 4 5 -6 5 -9 1 -18 4 -21
9 -2 4 -2 1 -1 -5 2 -7 0 -13 -5 -13 -5 0 -9 65 -10 145 l-2 145 100 0 101 0
31 -67 c17 -38 32 -80 32 -95 0 -15 5 -26 11 -25 6 1 10 -4 8 -12 -2 -7 3 -11
10 -9 7 3 48 16 91 28 43 13 74 26 70 29 -5 3 -26 44 -47 91 -34 78 -36 86
-20 95 45 26 99 85 120 130 31 65 33 170 4 232 -15 35 -17 47 -7 73 6 16 18
30 27 30 11 0 12 2 2 8 -7 5 -10 16 -6 28 6 17 5 17 -7 3 -8 -9 -21 -19 -29
-22 -12 -4 -12 -6 2 -6 14 -1 15 -5 6 -31 l-10 -31 -43 40 c-23 21 -52 42 -64
46 -12 3 -19 10 -16 15 9 15 -38 18 -287 20 l-248 1 -2 -248z m455 86 c72 -37
99 -105 72 -177 -26 -67 -66 -82 -227 -82 l-128 0 0 135 0 135 131 0 c77 0
139 -5 152 -11z m1215 -251 c10 -10 -23 -48 -155 -180 -165 -165 -169 -168
-210 -168 l-43 0 0 118 0 117 193 61 c105 34 194 62 198 63 3 0 10 -4 17 -11z
m-882 -859 l45 -12 -26 -27 c-39 -41 -98 -45 -147 -12 -21 13 -38 28 -38 32 0
9 63 27 98 29 13 1 43 -4 68 -10z"/>
<path d="M2985 2700 c11 -5 27 -9 35 -9 9 0 8 4 -5 9 -11 5 -27 9 -35 9 -9 0
-8 -4 5 -9z"/>
<path d="M3185 2640 c11 -5 27 -9 35 -9 9 0 8 4 -5 9 -11 5 -27 9 -35 9 -9 0
-8 -4 5 -9z"/>
<path d="M3255 2620 c11 -5 27 -9 35 -9 9 0 8 4 -5 9 -11 5 -27 9 -35 9 -9 0
-8 -4 5 -9z"/>
<path d="M3355 2590 c11 -5 27 -9 35 -9 9 0 8 4 -5 9 -11 5 -27 9 -35 9 -9 0
-8 -4 5 -9z"/>
<path d="M1530 2402 l0 -89 40 -1 c32 -2 43 3 56 23 31 48 -7 116 -56 100 -17
-5 -20 -2 -20 24 0 17 -4 31 -10 31 -6 0 -10 -36 -10 -88z m75 -27 c0 -36 -3
-40 -25 -40 -20 0 -26 6 -28 28 -4 33 14 59 37 55 11 -2 16 -15 16 -43z"/>
<path d="M1670 2405 c0 -68 3 -87 15 -92 9 -3 19 -2 23 2 4 4 1 10 -5 12 -9 3
-13 30 -13 84 0 46 -4 79 -10 79 -6 0 -10 -35 -10 -85z"/>
<path d="M3725 2480 c11 -5 27 -9 35 -9 9 0 8 4 -5 9 -11 5 -27 9 -35 9 -9 0
-8 -4 5 -9z"/>
<path d="M810 2395 c0 -69 3 -85 15 -85 10 0 15 11 15 35 0 27 4 35 18 35 11
0 25 -14 35 -35 9 -19 23 -35 32 -35 13 0 13 4 -2 34 -15 32 -15 36 1 51 41
41 7 85 -65 85 l-49 0 0 -85z m94 42 c13 -21 -5 -37 -41 -37 -19 0 -23 5 -23
31 0 27 3 30 26 27 15 -2 32 -11 38 -21z"/>
<path d="M970 2395 l0 -85 60 0 c47 0 60 3 60 15 0 11 -12 15 -45 15 -41 0
-45 2 -45 25 0 23 4 25 40 25 22 0 40 5 40 10 0 6 -18 10 -40 10 -36 0 -40 3
-40 25 0 23 4 25 45 25 25 0 45 5 45 10 0 6 -27 10 -60 10 l-60 0 0 -85z"/>
<path d="M3818 2453 c7 -3 16 -2 19 1 4 3 -2 6 -13 5 -11 0 -14 -3 -6 -6z"/>
<path d="M1128 2434 c-13 -13 -9 -101 5 -113 8 -6 30 -10 50 -9 l37 1 0 58 c0
32 -4 61 -10 64 -6 4 -10 -11 -10 -37 0 -52 -11 -71 -36 -66 -15 2 -20 15 -24
57 -3 29 -8 49 -12 45z"/>
<path d="M1276 2427 c-27 -20 -16 -50 22 -62 38 -11 43 -35 7 -35 -14 0 -25 5
-25 10 0 6 -7 10 -15 10 -13 0 -14 -4 -5 -20 15 -28 75 -28 90 1 14 26 0 44
-40 53 -17 3 -30 10 -30 16 0 17 29 23 45 10 20 -17 32 -5 15 15 -15 18 -40
19 -64 2z"/>
<path d="M1400 2425 c-17 -20 -5 -32 15 -15 15 13 45 7 45 -9 0 -5 -15 -12
-34 -15 -23 -4 -37 -14 -41 -27 -10 -31 12 -49 59 -47 l43 2 -5 51 c-2 27 -9
56 -14 63 -14 17 -53 15 -68 -3z m58 -72 c-4 -21 -36 -29 -51 -14 -9 9 -8 14
3 21 25 16 52 12 48 -7z"/>
<path d="M1750 2420 c-24 -24 -26 -57 -4 -88 18 -26 65 -30 84 -7 17 21 7 29
-18 14 -21 -13 -52 -7 -52 11 0 5 18 10 40 10 35 0 40 3 40 23 0 27 -28 57
-53 57 -9 0 -26 -9 -37 -20z m59 -13 c6 -8 8 -17 4 -20 -12 -12 -53 -7 -53 6
0 28 30 37 49 14z"/>
<path d="M3895 2430 c11 -5 27 -9 35 -9 9 0 8 4 -5 9 -11 5 -27 9 -35 9 -9 0
-8 -4 5 -9z"/>
<path d="M3995 2400 c11 -5 27 -9 35 -9 9 0 8 4 -5 9 -11 5 -27 9 -35 9 -9 0
-8 -4 5 -9z"/>
<path d="M878 2253 c39 -2 105 -2 145 0 39 1 7 3 -73 3 -80 0 -112 -2 -72 -3z"/>
<path d="M910 2185 c0 -8 5 -15 10 -15 6 0 10 7 10 15 0 8 -4 15 -10 15 -5 0
-10 -7 -10 -15z"/>
<path d="M1240 2111 c0 -84 1 -91 20 -91 11 0 20 5 20 10 0 6 -4 10 -10 10 -6
0 -10 31 -10 74 0 41 -4 78 -10 81 -6 4 -10 -27 -10 -84z"/>
<path d="M1444 2186 c-3 -9 -3 -23 0 -32 5 -13 1 -15 -17 -10 -38 9 -67 -19
-67 -63 0 -48 16 -61 69 -59 l41 1 0 83 c0 77 -12 115 -26 80z m-18 -64 c22
-14 25 -49 5 -73 -16 -20 -21 -21 -35 -10 -19 16 -21 62 -4 79 14 14 19 14 34
4z"/>
<path d="M1655 2165 c-5 -11 -13 -23 -19 -27 -8 -6 -7 -10 1 -16 6 -4 13 -28
15 -52 3 -41 6 -45 31 -48 15 -2 27 1 27 7 0 6 -9 11 -20 11 -17 0 -20 7 -20
40 0 33 3 40 20 40 11 0 20 5 20 10 0 6 -9 10 -19 10 -12 0 -21 8 -24 23 -3
21 -4 21 -12 2z"/>
<path d="M989 2132 c-25 -21 -30 -71 -9 -96 16 -20 64 -21 80 -1 19 23 3 31
-20 10 -16 -14 -22 -15 -35 -5 -8 7 -15 25 -15 40 0 15 7 33 15 40 13 10 19 9
35 -5 11 -10 23 -15 28 -11 7 8 -33 46 -48 46 -4 0 -18 -8 -31 -18z"/>
<path d="M1123 2140 c-13 -5 -23 -14 -23 -20 0 -13 13 -13 27 1 15 15 43 4 43
-16 0 -10 -10 -15 -29 -15 -36 0 -59 -25 -44 -48 7 -12 26 -18 60 -19 l49 -1
-6 50 c-4 32 -14 56 -25 64 -21 16 -22 16 -52 4z m47 -74 c0 -18 -27 -39 -40
-31 -14 9 -13 32 3 38 23 10 37 7 37 -7z"/>
<path d="M1533 2139 c-13 -5 -23 -16 -23 -25 0 -16 2 -16 20 1 21 19 50 14 50
-10 0 -10 -10 -15 -29 -15 -33 0 -54 -21 -49 -47 3 -15 14 -18 61 -19 42 -1
55 2 48 10 -5 6 -11 31 -13 55 -3 49 -25 65 -65 50z m47 -73 c0 -20 -25 -37
-44 -30 -21 8 -20 20 2 33 24 15 42 13 42 -3z"/>
<path d="M1758 2139 c-10 -5 -18 -17 -18 -26 0 -14 2 -14 20 2 21 19 50 14 50
-10 0 -10 -10 -15 -29 -15 -33 0 -54 -21 -49 -47 3 -14 14 -18 54 -20 l51 -1
-5 51 c-2 29 -7 55 -11 58 -13 14 -47 18 -63 8z m52 -74 c0 -17 -29 -34 -47
-28 -19 7 -16 31 5 36 32 9 42 7 42 -8z"/>
<path d="M910 2080 c0 -33 4 -60 10 -60 6 0 10 27 10 60 0 33 -4 60 -10 60 -6
0 -10 -27 -10 -60z"/>
<path d="M3340 2105 c-36 -13 -60 -24 -54 -24 5 -1 41 10 80 23 38 14 62 24
54 24 -8 0 -44 -10 -80 -23z"/>
<path d="M3165 2050 c-27 -10 -43 -18 -35 -18 8 0 38 8 65 18 28 10 43 18 35
18 -8 0 -37 -8 -65 -18z"/>
<path d="M2836 1952 c-3 -5 -32 -17 -66 -27 -33 -10 -58 -20 -56 -23 3 -2 28
4 56 13 28 9 53 15 56 13 2 -3 -3 -24 -11 -48 -8 -24 -13 -45 -11 -47 2 -2 12
20 21 49 10 29 22 56 28 59 6 4 5 9 -1 13 -6 3 -13 3 -16 -2z"/>
<path d="M2200 1745 c-36 -13 -60 -24 -54 -24 5 -1 41 10 80 23 38 14 62 24
54 24 -8 0 -44 -10 -80 -23z"/>
<path d="M628 1739 c-25 -14 -24 -65 2 -79 11 -6 31 -8 44 -4 30 7 109 -43
101 -64 -3 -8 -5 -78 -5 -156 l0 -142 -76 -24 c-42 -13 -72 -26 -67 -27 5 -2
35 6 68 17 74 26 77 25 74 -7 -1 -16 -1 -151 -1 -300 l2 -273 74 0 c41 0 77 4
80 9 3 5 6 149 6 321 1 288 3 337 13 284 2 -10 8 -28 13 -39 4 -11 52 -139
105 -285 l96 -265 64 -3 64 -3 49 133 c93 253 108 289 120 285 6 -3 119 -82
250 -176 131 -95 240 -170 242 -168 2 2 -57 46 -131 98 l-134 94 0 303 0 303
22 9 c60 24 -14 4 -148 -40 -82 -27 -145 -49 -138 -49 9 -1 6 -18 -9 -58 -12
-32 -24 -60 -28 -63 -3 -3 -7 -14 -8 -25 -2 -10 -13 -43 -24 -73 l-20 -53 -31
24 c-18 13 -48 34 -67 47 l-34 25 39 12 40 12 -50 -6 c-27 -3 -59 -9 -70 -14
-17 -7 -16 -8 7 -8 28 -1 158 -86 158 -104 0 -15 -81 -231 -89 -240 -5 -4 -33
61 -64 145 -30 84 -58 160 -62 170 -4 11 -1 18 12 21 15 4 15 5 -3 6 -12 0
-24 9 -27 19 -2 9 -8 25 -12 35 -11 25 12 21 52 -9 19 -14 37 -24 39 -21 3 3
-12 15 -32 28 l-38 23 30 13 c29 12 28 13 -11 7 -50 -7 -53 -3 -90 96 -15 41
-32 81 -38 88 -7 9 -36 12 -97 10 -87 -2 -88 -1 -139 36 -41 30 -51 43 -51 66
0 41 -36 60 -72 39z m892 -534 c0 -63 -3 -115 -7 -115 -5 1 -21 11 -37 24
l-29 24 34 91 c18 50 35 91 36 91 2 0 3 -52 3 -115z"/>
<path d="M2010 1685 c-19 -7 -28 -13 -20 -13 8 0 31 6 50 13 19 7 28 13 20 13
-8 0 -31 -6 -50 -13z"/>
<path d="M1820 1625 c-36 -13 -60 -24 -54 -24 5 -1 41 10 80 23 38 14 62 24
54 24 -8 0 -44 -10 -80 -23z"/>
<path d="M2515 1610 c-66 -16 -114 -29 -107 -29 9 -1 12 -69 12 -308 0 -278
-2 -312 -19 -348 -33 -73 -86 -105 -170 -105 -69 0 -130 34 -161 90 -25 44
-25 48 -28 317 -3 255 -2 272 15 276 12 3 13 5 3 6 -8 0 -62 -10 -120 -23 -58
-13 -95 -24 -82 -25 l22 -1 0 -257 c0 -274 5 -309 48 -383 15 -25 27 -48 27
-52 0 -4 70 -57 155 -118 126 -91 155 -116 155 -136 1 -35 28 -58 59 -50 32 8
45 49 23 74 -8 9 -12 24 -10 32 3 9 1 11 -4 5 -4 -6 -19 -15 -33 -22 -24 -10
-35 -4 -129 63 -57 41 -106 76 -108 78 -3 3 16 -2 43 -10 53 -16 183 -19 231
-5 21 6 33 6 35 -1 2 -6 55 128 118 297 128 343 126 336 111 315 -8 -11 -11
33 -11 156 l0 171 43 10 c23 6 33 11 22 11 -11 0 -74 -13 -140 -28z"/>
<path d="M2368 1573 c7 -3 16 -2 19 1 4 3 -2 6 -13 5 -11 0 -14 -3 -6 -6z"/>
<path d="M2318 1563 c6 -2 18 -2 25 0 6 3 1 5 -13 5 -14 0 -19 -2 -12 -5z"/>
<path d="M2691 1539 c-6 -18 -9 -34 -7 -36 2 -2 9 10 15 28 6 18 9 34 7 36 -2
2 -9 -10 -15 -28z"/>
<path d="M2240 1550 c-20 -6 -21 -8 -5 -8 11 0 31 4 45 8 20 6 21 8 5 8 -11 0
-31 -4 -45 -8z"/>
<path d="M2178 1533 c6 -2 18 -2 25 0 6 3 1 5 -13 5 -14 0 -19 -2 -12 -5z"/>
<path d="M2128 1523 c6 -2 18 -2 25 0 6 3 1 5 -13 5 -14 0 -19 -2 -12 -5z"/>
<path d="M2088 1513 c7 -3 16 -2 19 1 4 3 -2 6 -13 5 -11 0 -14 -3 -6 -6z"/>
<path d="M2661 1459 c-6 -18 -9 -34 -7 -36 2 -2 9 10 15 28 6 18 9 34 7 36 -2
2 -9 -10 -15 -28z"/>
<path d="M1280 1455 c-36 -13 -60 -24 -54 -24 5 -1 41 10 80 23 38 14 62 24
54 24 -8 0 -44 -10 -80 -23z"/>
<path d="M1798 1453 c6 -2 18 -2 25 0 6 3 1 5 -13 5 -14 0 -19 -2 -12 -5z"/>
<path d="M1758 1443 c7 -3 16 -2 19 1 4 3 -2 6 -13 5 -11 0 -14 -3 -6 -6z"/>
<path d="M1708 1433 c6 -2 18 -2 25 0 6 3 1 5 -13 5 -14 0 -19 -2 -12 -5z"/>
<path d="M2631 1379 c-6 -18 -9 -34 -7 -36 2 -2 9 10 15 28 6 18 9 34 7 36 -2
2 -9 -10 -15 -28z"/>
<path d="M1338 1353 c7 -3 16 -2 19 1 4 3 -2 6 -13 5 -11 0 -14 -3 -6 -6z"/>
<path d="M1288 1343 c6 -2 18 -2 25 0 6 3 1 5 -13 5 -14 0 -19 -2 -12 -5z"/>
<path d="M490 1205 c-36 -13 -60 -24 -54 -24 5 -1 41 10 80 23 38 14 62 24 54
24 -8 0 -44 -10 -80 -23z"/>
<path d="M690 1220 c-20 -6 -21 -8 -5 -8 11 0 31 4 45 8 20 6 21 8 5 8 -11 0
-31 -4 -45 -8z"/>
<path d="M600 1200 c-20 -6 -21 -8 -5 -8 11 0 31 4 45 8 20 6 21 8 5 8 -11 0
-31 -4 -45 -8z"/>
<path d="M538 1183 c6 -2 18 -2 25 0 6 3 1 5 -13 5 -14 0 -19 -2 -12 -5z"/>
<path d="M488 1173 c6 -2 18 -2 25 0 6 3 1 5 -13 5 -14 0 -19 -2 -12 -5z"/>
<path d="M321 1152 c-34 -11 -48 -12 -62 -3 -51 31 -106 -9 -80 -58 17 -31 68
-29 83 4 11 24 57 45 103 45 17 0 18 2 5 11 -11 7 -4 8 25 5 31 -4 34 -4 15 3
-32 12 -37 11 -89 -7z"/>
<path d="M448 1163 c7 -3 16 -2 19 1 4 3 -2 6 -13 5 -11 0 -14 -3 -6 -6z"/>
<path d="M2351 629 c-6 -18 -9 -34 -7 -36 2 -2 9 10 15 28 6 18 9 34 7 36 -2
2 -9 -10 -15 -28z"/>
</g>
</svg>
